<?xml version="1.0"?>
<svg xmlns="http://www.w3.org/2000/svg" height="512px" viewBox="0 0 496 496" width="512px"><path d="m248 0c-136.964844 0-248 111.035156-248 248s111.035156 248 248 248 248-111.035156 248-248c-.15625-136.902344-111.097656-247.84375-248-248zm0 480c-128.128906 0-232-103.871094-232-232s103.871094-232 232-232 232 103.871094 232 232c-.144531 128.070312-103.929688 231.855469-232 232zm0 0" fill="#FFFFFF"/><path d="m233.328125 104.703125h.800781c4.535156-.480469 9.207032-.703125 13.871094-.703125h1.3125c4.417969 0 8-3.582031 8-8s-3.582031-8-8-8h-1.3125c-5.183594 0-10.398438.246094-15.441406.742188-4.242188.425781-7.402344 4.105468-7.191406 8.363281.214843 4.257812 3.730468 7.597656 7.992187 7.597656zm0 0" fill="#FFFFFF"/><path d="m286.648438 109.238281c4.878906 1.363281 9.6875 2.980469 14.398437 4.839844 4.109375 1.628906 8.757813-.386719 10.386719-4.492187 1.625-4.109376-.386719-8.761719-4.496094-10.386719-5.222656-2.058594-10.542969-3.847657-15.945312-5.367188-4.253907-1.1875-8.664063 1.296875-9.855469 5.550781-1.1875 4.25 1.292969 8.664063 5.542969 9.855469zm0 0" fill="#FFFFFF"/><path d="m179.832031 120.121094c1.246094-.003906 2.472657-.296875 3.582031-.855469 4.519532-2.269531 9.152344-4.300781 13.882813-6.089844 3.917969-1.6875 5.824219-6.152343 4.328125-10.152343-1.496094-3.996094-5.863281-6.117188-9.929688-4.816407-5.253906 1.984375-10.398437 4.242188-15.414062 6.761719-3.316406 1.660156-5.058594 5.386719-4.199219 8.996094.855469 3.609375 4.078125 6.160156 7.789063 6.15625zm0 0" fill="#FFFFFF"/><path d="m96 255.855469c4.417969 0 8-3.582031 8-8 0-5.050781.269531-10.097657.800781-15.121094.464844-4.390625-2.71875-8.332031-7.113281-8.796875-4.394531-.46875-8.332031 2.714844-8.800781 7.109375-.585938 5.582031-.882813 11.191406-.886719 16.800781-.003906 2.125.839844 4.160156 2.339844 5.664063 1.5 1.5 3.535156 2.34375 5.660156 2.34375zm0 0" fill="#FFFFFF"/><path d="m135.496094 153.808594c2.257812 0 4.410156-.953125 5.929687-2.625 3.394531-3.734375 6.984375-7.292969 10.75-10.65625 3.300781-2.9375 3.59375-7.996094.65625-11.296875s-7.996093-3.59375-11.296875-.65625c-4.203125 3.742187-8.207031 7.695312-12 11.851562-2.132812 2.339844-2.679687 5.722657-1.398437 8.617188 1.28125 2.898437 4.152343 4.765625 7.320312 4.765625zm0 0" fill="#FFFFFF"/><path d="m103.3125 200.609375c4.121094 1.597656 8.753906-.449219 10.351562-4.570313 1.832032-4.710937 3.910157-9.324218 6.214844-13.824218 1.40625-2.550782 1.316406-5.664063-.238281-8.128906-1.554687-2.464844-4.324219-3.886719-7.234375-3.71875-2.90625.171874-5.492188 1.910156-6.75 4.535156-2.570312 4.996094-4.875 10.117187-6.902344 15.355468-1.601562 4.117188.441406 8.75 4.558594 10.351563zm0 0" fill="#FFFFFF"/><path d="m440.710938 326.152344c35.292968-86.894532 8.066406-186.65625-66.46875-243.578125-74.535157-56.921875-177.949219-56.921875-252.484376 0-74.535156 56.921875-101.761718 156.683593-66.46875 243.578125.078126.152344.101563.320312.191407.472656 31.921875 78.238281 108.019531 129.378906 192.519531 129.378906s160.597656-51.140625 192.519531-129.378906c.089844-.152344.113281-.320312.191407-.472656zm-192.710938-270.152344c61.417969-.023438 119.136719 29.347656 155.269531 79.011719 36.136719 49.664062 46.316407 113.621093 27.394531 172.050781-8.148437-8.550781-17.15625-16.234375-26.886718-22.925781 14.828125-63.1875-10.136719-129.054688-63.121094-166.535157-2.328125-1.707031-5.390625-2.027343-8.019531-.839843-2.628907 1.183593-4.417969 3.695312-4.675781 6.566406-.261719 2.871094 1.042968 5.664063 3.414062 7.304687 46.023438 32.609376 68.714844 89.128907 58.015625 144.511719-30.070313-16.796875-63.082031-27.683593-97.246094-32.074219l53.457031-68.734374c5.289063-6.777344 4.695313-16.4375-1.386718-22.519532-6.082032-6.078125-15.742188-6.664062-22.519532-1.367187l-74.101562 57.597656c-19.78125.09375-36.449219 14.789063-39.019531 34.402344-38.988281 4.277343-76.554688 17.097656-110.023438 37.550781-1.105469.402344-2.109375 1.046875-2.933593 1.886719-11.019532 7.222656-21.175782 15.675781-30.28125 25.191406-18.929688-58.429687-8.75-122.394531 27.382812-172.0625 36.136719-49.667969 93.859375-79.039063 155.28125-79.015625zm-24 192c0-11.449219 8.089844-21.304688 19.320312-23.535156 11.230469-2.234375 22.476563 3.777344 26.855469 14.359375 4.378907 10.578125.675781 22.777343-8.847656 29.136719-9.523437 6.359374-22.210937 5.105468-30.304687-2.992188-4.511719-4.492188-7.042969-10.601562-7.023438-16.96875zm52.289062-28.28125c-2.714843-2.636719-5.792968-4.867188-9.144531-6.621094l64.34375-50.027344c.417969-.300781.992188-.265624 1.367188.089844.355469.371094.386719.945313.074219 1.351563l-50.019532 64.289062c-1.765625-3.324219-3.996094-6.382812-6.621094-9.082031zm-28.289062 220.28125c-76.632812-.078125-145.90625-45.652344-176.304688-116 9.308594-10.96875 20.140626-20.546875 32.160157-28.449219.082031 0 .160156 0 .25-.039062 1.167969-.449219 2.222656-1.160157 3.078125-2.078125 31.171875-18.984375 66.125-30.914063 102.402344-34.945313 4.585937 17.472657 20.378906 29.652344 38.445312 29.652344s33.859375-12.179687 38.449219-29.652344c58.710937 7.390625 109.441406 31.488281 137.855469 65.511719-30.402344 70.355469-99.691407 115.9375-176.335938 116zm0 0" fill="#FFFFFF"/></svg>
